0.11m3min_grf.mot
version=1
nRows=10
nColumns 19
inDegrees=yes
endheader
time	1_ground_force_vx	1_ground_force_vy	1_ground_force_vz	1_ground_force_px	1_ground_force_py	1_ground_force_pz	1_ground_torque_x	1_ground_torque_y	1_ground_torque_z	2_ground_force_vx	2_ground_force_vy	2_ground_force_vz	2_ground_force_px	2_ground_force_py	2_ground_force_pz	2_ground_torque_x	2_ground_torque_y	2_ground_torque_z
            3.736500	           20.632218	          516.693278	          -51.030089	           -0.276990	            0.006197	           -0.401108	            0.082578	            2.068006	           -0.204242	           -1.484861	          536.185301	           69.302590	           -0.234002	            0.005738	           -0.725388	            0.003120	           -1.126521	           -0.145604
            3.737000	           20.957328	          509.838132	          -49.868005	           -0.277068	            0.006197	           -0.401161	            0.086152	            2.095850	           -0.204998	           -1.690963	          528.269493	           68.288953	           -0.233898	            0.005737	           -0.725080	            0.002953	           -0.922549	           -0.119257
            3.737500	           21.281644	          502.984363	          -49.026915	           -0.276963	            0.006197	           -0.401096	            0.088767	            2.097982	           -0.204495	           -1.804257	          520.540188	           66.759717	           -0.233868	            0.005736	           -0.724802	            0.002966	           -0.855648	           -0.109738
            3.738000	           21.882135	          496.849547	          -47.678998	           -0.276736	            0.006196	           -0.400809	            0.092413	            2.098295	           -0.201358	           -1.639630	          513.731369	           65.562136	           -0.233616	            0.005738	           -0.725040	            0.002481	           -0.777365	           -0.099207
            3.738500	           22.573294	          489.455021	          -46.841130	           -0.276572	            0.006198	           -0.401244	            0.095051	            2.060974	           -0.197236	           -1.426016	          506.369125	           64.691068	           -0.233559	            0.005738	           -0.724908	            0.002207	           -0.783621	           -0.100111
            3.739000	           22.760550	          483.141070	          -45.768096	           -0.276411	            0.006197	           -0.401085	            0.090791	            1.927236	           -0.182568	           -0.747706	          500.111972	           64.246096	           -0.233510	            0.005738	           -0.724938	            0.001329	           -0.889089	           -0.114215
            3.739500	           22.993386	          477.007756	          -44.786116	           -0.276092	            0.006197	           -0.401104	            0.089940	            1.865852	           -0.175184	            0.261110	          493.120216	           63.563716	           -0.233360	            0.005738	           -0.724923	           -0.000502	           -0.948112	           -0.122213
            3.740000	           23.226829	          470.693163	          -43.575633	           -0.276132	            0.006196	           -0.400914	            0.091443	            1.853104	           -0.171556	            0.476094	          485.389356	           62.785190	           -0.233364	            0.005738	           -0.724777	           -0.000829	           -0.845415	           -0.109355
            3.740500	           23.321895	          464.019646	          -42.733194	           -0.275850	            0.006196	           -0.400947	            0.092739	            1.845165	           -0.169928	            0.401237	          480.052208	           61.780685	           -0.233013	            0.005739	           -0.724817	           -0.000616	           -0.737389	           -0.094899
            3.741000	           23.785707	          456.982265	          -41.113664	           -0.275674	            0.006196	           -0.400890	            0.099261	            1.907040	           -0.171572	            0.098611	          472.874086	           60.394284	           -0.232983	            0.005738	           -0.724552	           -0.000124	           -0.595490	           -0.076055
